<svg xmlns="http://www.w3.org/2000/svg" viewBox="0 0 350 120" width="350" height="120">
  <rect width="350" height="120" fill="transparent"/>
  <g transform="translate(175,48)">
    <path fill="#0054A4" d="M-100 0 L-100 50 L-88 50 L-88 18 L-68 18 L-68 43 C-68 48 -65 50 -57 50 L-48 50 L-48 40 L-60 40 L-60 18 L-88 18 Z"/>
    <path fill="#0054A4" d="M-35 0 L-45 0 L-45 50 L-35 50 L-35 0 Z"/>
    <path fill="#0054A4" d="M-20 50 L-20 0 L-8 0 L12 38 L32 0 L44 0 L44 50 L34 50 L34 14 L14 52 L6 52 L-14 14 L-14 50 L-20 50 Z"/>
  </g>
  <text x="175" y="88" font-family="Arial, Helvetica, sans-serif" font-size="11" fill="#0054A4" text-anchor="middle" letter-spacing="1">Electrical Components International</text>
</svg>