<svg width="777.959" height="219.404" xmlns="http://www.w3.org/2000/svg"><g style="fill:#093572;fill-opacity:1"><path d="M0 0c4.856 6.676 10.767 14.836 12.852 17.71 2.086 2.875 4.821 4.55 7.757 4.55a8.75 8.75 0 0 0 0-17.501H3.839v-22.455h10.732v12.13l6.794-.003c10.704 0 19.383 8.678 19.383 19.383 0 10.705-8.679 19.383-19.383 19.383-8.623 0-15.274-7.038-18.836-13.479C.25 27.589-5.946 33.197-15.566 33.197c-11.433 0-20.7-9.269-20.7-20.701 0-11.433 9.267-20.702 20.7-20.702C-8.766-8.206-3.98-5.47 0 0m-5.788 12.496c0-5.4-4.378-9.778-9.778-9.778s-9.777 4.378-9.777 9.778c0 5.399 4.377 9.777 9.777 9.777 5.4 0 9.778-4.378 9.778-9.777" style="fill:#093572;fill-opacity:1;fill-rule:nonzero;stroke:none" transform="matrix(3.7574 0 0 -3.7574 136.266 124.734)" clip-path="url(#a)"/></g></svg>
