<svg version="1.1" id="Layer_1" xmlns="http://www.w3.org/2000/svg" viewBox="0 0 500 500"><style type="text/css">.st0{clip-path:url(#XMLID_44_);fill:url(#SVGID_1_);}.st1{clip-path:url(#XMLID_45_);fill:url(#SVGID_2_);}.st2{clip-path:url(#XMLID_46_);fill:url(#SVGID_3_);}.st3{fill:#0073AD;}</style><defs><path id="XMLID_3_" d="M128.3,181.4c-7.6,0-13.9,6.3-13.9,13.9s6.3,13.9,13.9,13.9h95.3c7.6,0,13.9-6.3,13.9-13.9s-6.3-13.9-13.9-13.9H128.3z"/><clipPath id="XMLID_44_"><use xlink:href="#XMLID_3_" style="overflow:visible;"/></clipPath><linearGradient id="SVGID_1_" gradientUnits="userSpaceOnUse" x1="-1.6929" y1="0.6203" x2="0.8419" y2="0.6203" gradientTransform="matrix(48.6 0 0 -48.6 196.4121 225.4879)"><stop offset="0" style="stop-color:#FFFCF8"/><stop offset="0.6512" style="stop-color:#FAAE57"/><stop offset="0.85" style="stop-color:#F89625"/><stop offset="1" style="stop-color:#F89625"/></linearGradient><path id="XMLID_5_" d="M109.6,251.4c-7.6,0-13.9,6.3-13.9,13.9c0,7.6,6.3,13.9,13.9,13.9h95.3c7.6,0,13.9-6.3,13.9-13.9c0-7.6-6.3-13.9-13.9-13.9H109.6z"/><clipPath id="XMLID_45_"><use xlink:href="#XMLID_5_" style="overflow:visible;"/></clipPath><linearGradient id="SVGID_2_" gradientUnits="userSpaceOnUse" x1="-1.924" y1="-0.2519" x2="0.6107" y2="-0.2519" gradientTransform="matrix(48.6 0 0 -48.6 189.1424 253.0576)"><stop offset="0" style="stop-color:#FFFCF8"/><stop offset="0.6512" style="stop-color:#FAAE57"/><stop offset="0.85" style="stop-color:#F89625"/><stop offset="1" style="stop-color:#F89625"/></linearGradient><path id="XMLID_7_" d="M81.4,216.4c-7.6,0-13.9,6.3-13.9,13.9c0,7.6,6.3,13.9,13.9,13.9h95.3c7.6,0,13.9-6.3,13.9-13.9c0-7.6-6.3-13.9-13.9-13.9H81.4z"/><clipPath id="XMLID_46_"><use xlink:href="#XMLID_7_" style="overflow:visible;"/></clipPath><linearGradient id="SVGID_3_" gradientUnits="userSpaceOnUse" x1="0.7387" y1="-0.185" x2="3.2734" y2="-0.185" gradientTransform="matrix(-48.6 0 0 48.6 226.5879 239.3121)"><stop offset="0" style="stop-color:#F7FCFE"/><stop offset="0.1028" style="stop-color:#E0EFF7"/><stop offset="0.3185" style="stop-color:#A5CFE3"/><stop offset="0.6261" style="stop-color:#489BC5"/><stop offset="0.85" style="stop-color:#0073AD"/><stop offset="1" style="stop-color:#0073AD"/></linearGradient></defs><rect x="114.1" y="181.4" class="st0" width="123.2" height="27.9"/><rect x="95.6" y="251.4" class="st1" width="123.2" height="27.9"/><rect x="67.5" y="216.4" class="st2" width="123.2" height="27.9"/><polygon class="st3" points="263.7,182.2 257.9,204.2 287.3,204.2 267.2,278.5 292.6,278.5 312.6,204.2 342,204.2 347.8,182.2"/><polygon class="st3" points="355.2,182.2 329.3,278.5 406.6,278.5 412.5,257.2 360,257.2 364.6,239.7 411.5,239.7 416.8,220.2 369.9,220.2 374.5,203.5 426.9,203.5 432.5,182.2"/></svg>
