<svg xmlns="http://www.w3.org/2000/svg" viewBox="0 0 652 652">
  <polygon fill="#5C6670" points="223.5,302.7 223.5,311.4 208.7,311.4 208.7,352.2 198.3,352.2 198.3,311.4 183.4,311.4 183.4,302.7"/>
  <path fill="#5C6670" d="M242 314.7c.1 0 .4 0 .8.1v9.8c-.6-.1-1.1-.1-1.6-.1-.5 0-.9 0-1.1 0-3.9 0-6.4 1.3-7.8 3.8-.7 1.4-1.1 3.6-1.1 6.5v17.5h-9.6v-36.6h9.1v6.4c1.5-2.4 2.8-4.1 3.9-5 1.8-1.5 4.1-2.2 7-2.2.2 0 .4 0 .5 0z"/>
  <path fill="#5C6670" d="M254.9 311.2h-9.7v-8.8h9.7v8.8zm-9.7 4.4h9.7v36.6h-9.7v-36.6z"/>
  <path fill="#5C6670" d="M270.3 315.6v22.1c0 2.1.2 3.6.7 4.7.9 1.9 2.6 2.8 5.1 2.8 3.3 0 5.5-1.3 6.7-4 .6-1.4.9-3.3.9-5.7v-19.9h9.7v36.6h-9.3V347c-.1.1-.3.5-.7 1-.4.6-.8 1.1-1.3 1.5-1.5 1.3-2.9 2.3-4.3 2.8-1.4.5-3 .7-4.9.7-5.4 0-9-2-10.9-5.8-1.1-2.2-1.6-5.3-1.6-9.5v-22.1h9.6z"/>
  <path fill="#5C6670" d="M345.9 315.7c1.6.6 3 1.7 4.3 3.3 1 1.3 1.7 2.8 2.1 4.7.2 1.2.3 3 .3 5.4l-.1 23.1h-9.8v-23.3c0-1.4-.2-2.5-.7-3.4-.9-1.7-2.4-2.6-4.7-2.6-2.6 0-4.5 1.1-5.5 3.3-.5 1.2-.8 2.6-.8 4.2v21.8h-9.6v-21.8c0-2.2-.2-3.8-.7-4.7-.8-1.8-2.4-2.7-4.7-2.7-2.7 0-4.6.9-5.5 2.7-.5 1-.8 2.5-.8 4.5v22h-9.7v-36.6h9.3v5.3c1.2-1.9 2.3-3.3 3.4-4.1 1.9-1.4 4.3-2.1 7.2-2.1 2.8 0 5.1.6 6.8 1.8 1.4 1.1 2.4 2.6 3.2 4.4 1.3-2.2 2.8-3.7 4.7-4.7 2-1 4.2-1.5 6.6-1.5 2.4 0 3.9.3 5.4 1z"/>
  <path fill="#5C6670" d="M388.8 319.5c3 3.2 4.5 7.8 4.5 13.9 0 6.5-1.5 11.4-4.4 14.8s-6.7 5.1-11.3 5.1c-2.9 0-5.4-.7-7.3-2.2-1.1-.8-2.1-2-3.1-3.5v19.1h-9.5v-51h9.2v5.4c1-1.6 2.1-2.8 3.3-3.8 2.1-1.6 4.7-2.5 7.6-2.5 4.5 0 8.2 1.6 11.1 4.7zm-7.3 6.9c-1.3-2.2-3.4-3.3-6.3-3.3-3.5 0-5.9 1.6-7.2 4.9-.7 1.7-1 4-1 6.7 0 4.3 1.1 7.2 3.4 9 1.4 1 3 1.5 4.8 1.5 2.7 0 4.8-1 6.2-3.1 1.4-2.1 2.1-4.8 2.1-8.2 0-2.8-.6-5.3-1.9-7.5z"/>
  <path fill="#5C6670" d="M423 315.8c1.8.8 3.4 2 4.5 3.6 1 1.4 1.6 2.8 1.8 4.2.2 1.4.3 3.8.3 7.1v21.5H420v-22.3c0-2-.3-3.6-1-4.8-.9-1.7-2.5-2.6-4.9-2.6-2.5 0-4.4.8-5.7 2.5-1.3 1.7-2 4.1-2 7.2v19.8h-9.6v-49.4h9.6v17.5c1.4-2.1 3-3.6 4.8-4.5 1.8-.8 3.7-1.3 5.7-1.3 2.4 0 4.5.4 6.3 1.2z"/>
  <path fill="#5C6670" d="M485.2 318.1c-.8-3.4-2.7-5.7-5.7-7.1-1.7-.7-3.6-1.1-5.7-1.1-4 0-7.3 1.5-9.8 4.5-2.6 3-3.8 7.5-3.8 13.6 0 6.1 1.4 10.4 4.2 12.9 2.8 2.5 5.9 3.8 9.5 3.8 3.5 0 6.3-1 8.5-3 2.2-2 3.6-4.6 4.1-7.8h-11.5v-8.3h20.6v26.6h-6.9l-1-6.2c-2 2.3-3.8 4-5.4 5-2.7 1.7-6.1 2.5-10.1 2.5-6.6 0-11.9-2.3-16.1-6.8-4.4-4.6-6.6-10.8-6.6-18.7 0-8 2.2-14.4 6.6-19.3 4.4-4.8 10.2-7.3 17.5-7.3 6.3 0 11.4 1.6 15.2 4.8 3.8 3.2 6 7.2 6.6 11.9h-8.2z"/>
  <path fill="#5C6670" d="M521.6 314.7c.1 0 .4 0 .8.1v9.8c-.6-.1-1.1-.1-1.6-.1-.5 0-.9 0-1.1 0-3.9 0-6.4 1.3-7.8 3.8-.7 1.4-1.1 3.6-1.1 6.5v17.5h-9.6v-36.6h9.1v6.4c1.5-2.4 2.8-4.1 3.9-5 1.8-1.5 4.1-2.2 7-2.2.2 0 .4 0 .5 0z"/>
  <path fill="#5C6670" d="M555.9 347.7c-3.1 3.8-7.8 5.7-14.1 5.7s-11-1.9-14.1-5.7-4.6-8.4-4.6-13.8c0-5.3 1.5-9.9 4.6-13.7 3.1-3.9 7.8-5.8 14.1-5.8s11 1.9 14.1 5.8c3.1 3.9 4.6 8.5 4.6 13.7 0 5.3-1.6 9.9-4.7 13.7zm-7.7-5.3c1.5-2 2.3-4.8 2.3-8.5s-.8-6.5-2.3-8.5c-1.5-2-3.7-3-6.5-3s-5 1-6.5 3-2.3 4.8-2.3 8.5.8 6.5 2.3 8.5c1.5 2 3.7 3 6.5 3s5-1 6.5-3z"/>
  <path fill="#5C6670" d="M574.3 315.6v22.1c0 2.1.2 3.6.7 4.7.9 1.9 2.6 2.8 5.1 2.8 3.3 0 5.5-1.3 6.7-4 .6-1.4.9-3.3.9-5.7v-19.9h9.7v36.6h-9.3V347c-.1.1-.3.5-.7 1-.4.6-.8 1.1-1.3 1.5-1.5 1.3-2.9 2.3-4.3 2.8-1.4.5-3 .7-4.9.7-5.4 0-9-2-10.9-5.8-1.1-2.2-1.6-5.3-1.6-9.5v-22.1h9.6z"/>
  <path fill="#5C6670" d="M634.2 319.5c3 3.2 4.5 7.8 4.5 13.9 0 6.5-1.5 11.4-4.4 14.8s-6.7 5.1-11.3 5.1c-2.9 0-5.4-.7-7.3-2.2-1.1-.8-2.1-2-3.1-3.5v19.1h-9.5v-51h9.2v5.4c1-1.6 2.1-2.8 3.3-3.8 2.1-1.6 4.7-2.5 7.6-2.5 4.5 0 8.1 1.6 11.1 4.7zm-7.4 6.9c-1.3-2.2-3.4-3.3-6.3-3.3-3.5 0-5.9 1.6-7.2 4.9-.7 1.7-1 4-1 6.7 0 4.3 1.1 7.2 3.4 9 1.4 1 3 1.5 4.8 1.5 2.7 0 4.8-1 6.2-3.1 1.4-2.1 2.1-4.8 2.1-8.2 0-2.8-.7-5.3-2-7.5z"/>
  <polygon fill="#8B2332" points="115.9,291.9 138.9,400.2 138.9,278"/>
  <polygon fill="#8B2332" points="265.6,253.6 15,253.6 140.3,273.9"/>
  <polygon fill="#8B2332" points="24.2,258 113.7,289.8 136.1,276.2"/>
  <polygon fill="#8B2332" points="144.5,276.2 167,289.8 256.6,258"/>
  <polygon fill="#8B2332" points="141.8,400.2 164.8,291.9 141.8,278"/>
</svg>