<svg version="1.1" id="Layer_1" xmlns="http://www.w3.org/2000/svg" viewBox="0 0 500 500"><style type="text/css">.st0{fill:#EA0437;}</style><path class="st0" d="M109.4,216.9h-27c0,0-15-0.7-15,14.4v51.7L109.4,216.9z"/><polygon class="st0" points="130.2,216.9 118.1,216.9 98,247.8 118.1,280.8 130.7,280.8 110.8,247.1"/><path class="st0" d="M175.1,216.9h-28.4c0,0-13.4,0-13.4,14.1v34.2c0,0-1.2,15.5,14.7,15.5h28.4v-10h-27.7c0,0-4.6,0.4-4.6-5v-13.6h29.3v-9.5h-29.3v-11.9c0,0-0.4-4.3,5.2-4.3h19.9L175.1,216.9z"/><path class="st0" d="M275.7,216.9h-28.4c0,0-13.4,0-13.4,14.1v34.2c0,0-1.2,15.5,14.7,15.5H277v-10h-27.7c0,0-4.6,0.4-4.6-5v-13.6h29.3v-9.5h-29.2v-11.9c0,0-0.4-4.3,5.2-4.3h19.9L275.7,216.9z"/><path class="st0" d="M353.4,242.6v-11.9c0,0-0.4-4.3,5.2-4.3h19.9l5.8-9.4H356c0,0-13.4,0-13.4,14.1v34.2c0,0-1.2,15.5,14.7,15.5h27.9v-9.4H358c0,0-4.6,0.4-4.6-5v-14.3V242.6z"/><path class="st0" d="M431.2,216.9h-28.4c0,0-13.4,0-13.4,14.1v34.2c0,0-1.2,15.5,14.7,15.5h28.4v-10h-27.7c0,0-4.6,0.4-4.6-5v-13.6h29.2v-9.5h-29.2v-11.9c0,0-0.4-4.3,5.2-4.3h19.9L431.2,216.9z"/><polygon class="st0" points="178.5,216.9 190.5,216.9 205.2,244.1 220.6,216.9 232.5,216.9 209.9,253.8 209.9,280.8 199.6,280.8 199.6,253.6"/><polygon class="st0" points="285.1,216.9 285.1,280.8 295.3,280.8 295.3,237.8 323,280.8 332.5,280.8 332.5,216.9 322.1,216.9 322.1,259.5 294.8,216.9"/></svg>
