<svg xmlns="http://www.w3.org/2000/svg" viewBox="0 0 815 193">
  <path fill="#166fc0" d="M78.8 158.1c-43.3 0-78.8-35.4-78.8-79.4 0-43.2 35.4-78.7 78.8-78.7 43.8 0 79.3 35.4 79.3 78.7 0 43.9-35.4 79.4-79.3 79.4zm0-33.1c25.8 0 46.2-20.4 46.2-46.3 0-25.2-20.4-45.7-46.2-45.7-25.3 0-45.7 20.4-45.7 45.7 0 25.9 20.4 46.3 45.7 46.3z"/>
  <path fill="#166fc0" d="M564.4 158.1c-43.3 0-78.8-35.4-78.8-79.4 0-43.2 35.4-78.7 78.8-78.7 43.8 0 79.3 35.4 79.3 78.7 0 43.9-35.4 79.4-79.3 79.4zm0-33.1c25.8 0 46.2-20.4 46.2-46.3 0-25.2-20.4-45.7-46.2-45.7-25.3 0-45.7 20.4-45.7 45.7 0 25.9 20.4 46.3 45.7 46.3z"/>
  <path fill="#166fc0" d="M167.1 4.9v149.6h33v-122h36.7v122h33v-122h12.7c13.2 0 23.4-10.2 23.4-22.8v-99h33.1v98c0 29.4-23.4 53-52.8 53h-85.4c-11.4 0-22.8 0-33.7-1.3z"/>
  <path fill="#166fc0" d="M652.8 4.9v149.6h33v-122h37.3c12.6 0 23.4-10.2 23.4-22.8v-99h33v98c0 29.4-23.4 53-52.8 53h-40.9c-10.8 0-22.2 0-33-1.3z"/>
  <path fill="#166fc0" d="M352.9 4.9v149.6h33v-122h39.1c13.2 0 23.4-10.2 23.4-22.8 0-13.2-10.2-23.4-23.4-23.4h-28.2l51.1-75.8h40.9l-37.3 54.7c18 6.6 30 24 30 44.5 0 28.2-22.8 51.7-51.7 51.7h-43.9c-11.4 0-22.2 0-33-1.3z"/>
</svg>