<svg xmlns="http://www.w3.org/2000/svg" viewBox="0 0 1024 418">
  <path fill="#097CBC" d="M1 178.8c0 38.8 34.1 55.5 65.1 55.5h72.7c38.9 0 69.4-36.1 69.4-72.1 0-39-30.9-69.8-69.6-70.8H68.1c-18.9-3.1-17.8-30.4 0-33h132.5c0-30.4-22.9-54.3-54.8-54.3H68.1C28.2 4.1.6 38.6.6 75.4c0 38.3 29.8 70.4 67.5 70.4h70.7c17.9 3.5 20.2 28.9 0 33H1z"/>
  <rect x="228.6" y="4.1" fill="#097CBC" width="54.4" height="230.2"/>
  <path fill="#097CBC" d="M530.2 176.1c-20 37.9-59.6 63.6-105 63.6-65.6 0-118.8-53.7-118.8-119.9 0-66.3 53.2-119.9 118.8-119.9 45 0 84.1 25.2 104.3 62.5l-48.7 26.3c-10.9-20.1-31.9-33.5-55.6-33.5-34.6 0-63.5 28.4-63.5 64.6 0 36.2 28.9 64.6 63.5 64.6 24.2 0 45.7-13.9 56.4-34.7l48.6 24.1z"/>
  <polygon fill="#097CBC" points="550.7,4.1 550.7,234.3 605.7,234.3 605.7,145.1 625,145.1 682.9,234.3 750.5,234.3 673.8,120.7 751.7,4.1 684,4.1 626.9,96.4 605.7,96.4 605.7,4.1 "/>
</svg>