<svg xmlns="http://www.w3.org/2000/svg" viewBox="0 0 307 98">
  <path fill="#0066b3" d="M0 49C0 22 22 0 49 0c14.7 0 28 6.7 37 16.9H54.6c-3.9 0-8.2 2.7-10.2 4.8-2 2.1-21.9 21.9-24.5 24.4-2.6 2.4-4.5 2.9-7.9 2.9H0zm21.5 14c3.4 0 5.3-.4 7.9-2.8 2.6-2.4 22.3-22.1 24.4-24.4 2-2.1 6.3-4.8 10.2-4.8h30.6c-1.4-3.5-3.2-6.8-5.3-9.8H66c-3.4 0-6.5 1.8-8.4 3.6-1.9 1.8-22.2 22.1-24.2 24.1 0 0-3.4 4.5-10.3 4.5H.2c.3 3.4.9 6.6 1.9 9.7l19.4-.1zm10.6 14.3c3.4 0 5.3-.5 7.8-3 3-2.8 22.1-22.3 24.5-24.8 2-2.1 6.3-4.8 10.2-4.8h23.4c-.3-3.4-.9-6.3-1.8-9.5H76.6c-3.4 0-6.7 1.8-8.6 3.6-2.2 2-22.1 22-24.1 24 0 0-3.3 4.5-10.2 4.5H3.5c1.4 3.6 3.3 6.9 5.5 10h23zm-19.6 4.2C21.4 91.5 34.5 98 49 98c27 0 48.8-22.2 49.1-49H86c-3.4 0-6.8 1.7-8.6 3.6-1.8 1.8-22 22.6-23.9 24.5 0 0-3.6 4.5-10.5 4.5H12.4z"/>
  <path fill="#0066b3" d="M164.7 54.8c-1.8-3-4.1-7.7-14.5-10.3-10.8-2.8-15.2-3.8-18.1-4.5-2.9-.6-7.6-2.2-7.6-8.5 0-5.7 5.7-8.8 11.7-8.8 5.8 0 13.5 2.5 14.7 11.5h13.8v20.6zm72.5-41.7h-23.2l-13.1 50.4-13-50.4h-23.2v16.2c-7.1-18.8-22.7-19.5-27.4-19.5-20.3 0-27.6 12.7-27.6 22 0 15 12.4 19.6 15.8 20.5 2.9.7 17.6 4.3 20.5 5.1 3.6 1.1 6.4 4.2 6.4 8 0 3.6-2.8 9.7-13.5 9.7s-15.8-5.8-16.6-12.9H108c0 0-.5 25.9 31.8 25.9 13.9 0 21.2-5.8 25-11.9v9.2h14.5l-.6-54.3 15 54.3h14.7l15-54.3-.6 54.3h14.5V72c3.3 6.7 10.9 16.2 27.4 16.2 18.7 0 27.9-11.5 29.5-26h-13.9c-1 7-7.3 12.7-15.5 12.7-2.3 0-18.5-1.2-18.5-26 0-17 8.7-26.7 18.5-26.7 3 0 13.3 1.3 14.7 13.5h13.8c-1.1-17.4-15.4-25.8-28.5-25.8-15.4 0-24 8.1-27.5 14.7V13.1z"/>
</svg>